<svg xmlns="http://www.w3.org/2000/svg" xmlns:xlink="http://www.w3.org/1999/xlink" width="200" zoomAndPan="magnify" viewBox="0 0 150 42" height="56" preserveAspectRatio="xMidYMid meet" version="1.0"><defs><g/><clipPath id="710eb7d0f5"><path d="M 2.902344 6.679688 L 22.5625 6.679688 L 22.5625 33 L 2.902344 33 Z M 2.902344 6.679688 " clip-rule="nonzero"/></clipPath></defs><g clip-path="url(#710eb7d0f5)"><path fill="#000000" d="M 12.15625 15.1875 C 12.164062 15.121094 12.152344 15.054688 12.117188 15 C 12.117188 15 8.59375 8.953125 7.640625 7.316406 C 7.425781 6.949219 6.949219 6.824219 6.578125 7.035156 C 6.398438 7.136719 6.269531 7.308594 6.214844 7.503906 C 6.164062 7.703125 6.191406 7.910156 6.292969 8.089844 C 7 9.300781 9.089844 12.886719 9.675781 13.890625 C 9.675781 13.890625 9.390625 14.054688 9.390625 14.054688 C 9.390625 14.054688 6.015625 8.265625 6.015625 8.265625 C 5.910156 8.082031 5.738281 7.953125 5.535156 7.898438 C 5.332031 7.84375 5.117188 7.871094 4.933594 7.976562 C 4.757812 8.078125 4.628906 8.242188 4.578125 8.4375 C 4.527344 8.628906 4.554688 8.835938 4.65625 9.007812 C 4.65625 9.007812 8.042969 14.824219 8.042969 14.824219 C 8.042969 14.824219 7.757812 14.988281 7.757812 14.988281 C 7.757812 14.988281 4.375 9.183594 4.375 9.183594 C 4.273438 9.007812 4.101562 8.878906 3.902344 8.828125 C 3.703125 8.773438 3.492188 8.800781 3.3125 8.902344 C 3.195312 8.972656 3.136719 9.113281 3.171875 9.246094 C 3.207031 9.378906 3.328125 9.46875 3.46875 9.46875 C 3.328125 9.46875 3.207031 9.378906 3.171875 9.246094 C 3.136719 9.113281 3.195312 8.972656 3.3125 8.902344 C 3.136719 9.003906 3.003906 9.175781 2.953125 9.371094 C 2.898438 9.570312 2.925781 9.777344 3.03125 9.957031 C 3.984375 11.59375 7.507812 17.636719 7.507812 17.636719 C 7.539062 17.691406 7.589844 17.738281 7.652344 17.765625 L 9.722656 18.640625 C 9.722656 18.640625 17.210938 31.488281 17.210938 31.488281 C 17.816406 32.527344 19.15625 32.882812 20.207031 32.285156 C 20.113281 32.335938 20.050781 32.324219 20.050781 32.324219 C 20.160156 32.324219 20.261719 32.265625 20.316406 32.171875 C 20.371094 32.078125 20.371094 31.964844 20.316406 31.867188 C 20.316406 31.867188 12.589844 18.609375 11.886719 17.402344 C 11.886719 17.402344 12.15625 15.1875 12.15625 15.1875 Z M 6.492188 31.882812 L 11.648438 23.039062 C 11.730469 22.894531 11.683594 22.707031 11.535156 22.625 C 11.390625 22.539062 11.203125 22.589844 11.117188 22.734375 L 5.792969 31.867188 C 5.738281 31.964844 5.738281 32.078125 5.792969 32.171875 C 5.847656 32.265625 5.949219 32.324219 6.058594 32.324219 C 6.058594 32.324219 6 32.335938 5.910156 32.285156 C 6.410156 32.570312 7.007812 32.648438 7.566406 32.5 C 8.128906 32.351562 8.609375 31.988281 8.898438 31.488281 C 10.304688 29.074219 12.796875 24.804688 12.796875 24.804688 C 12.878906 24.660156 12.828125 24.472656 12.683594 24.390625 C 12.535156 24.304688 12.347656 24.355469 12.265625 24.5 C 12.265625 24.5 9.777344 28.769531 8.367188 31.1875 C 8.160156 31.542969 7.8125 31.808594 7.410156 31.914062 C 7.105469 31.996094 6.785156 31.984375 6.492188 31.882812 Z M 19.617188 31.882812 C 18.917969 32.121094 18.125 31.84375 17.742188 31.1875 C 15.53125 27.394531 10.203125 18.25 10.203125 18.25 C 10.167969 18.191406 10.117188 18.148438 10.058594 18.121094 L 7.984375 17.246094 C 7.984375 17.246094 3.558594 9.652344 3.558594 9.652344 C 3.539062 9.613281 3.53125 9.570312 3.542969 9.527344 C 3.554688 9.484375 3.582031 9.449219 3.621094 9.429688 C 3.574219 9.457031 3.519531 9.46875 3.46875 9.46875 L 3.621094 9.429688 C 3.65625 9.40625 3.703125 9.402344 3.746094 9.414062 C 3.789062 9.421875 3.824219 9.453125 3.84375 9.488281 C 4.671875 10.90625 7.378906 15.550781 7.378906 15.550781 C 7.464844 15.699219 7.652344 15.746094 7.796875 15.664062 L 8.613281 15.195312 C 8.761719 15.113281 8.8125 14.925781 8.726562 14.78125 C 8.726562 14.78125 6 10.109375 5.183594 8.707031 C 5.164062 8.671875 5.160156 8.632812 5.171875 8.59375 C 5.179688 8.554688 5.207031 8.523438 5.242188 8.503906 C 5.28125 8.480469 5.332031 8.472656 5.375 8.484375 C 5.421875 8.496094 5.460938 8.527344 5.484375 8.566406 L 9.011719 14.617188 C 9.097656 14.765625 9.285156 14.8125 9.429688 14.730469 L 10.246094 14.261719 C 10.394531 14.179688 10.441406 13.992188 10.359375 13.847656 C 10.359375 13.847656 7.648438 9.199219 6.824219 7.785156 C 6.804688 7.746094 6.796875 7.703125 6.808594 7.660156 C 6.820312 7.617188 6.847656 7.582031 6.886719 7.5625 C 6.964844 7.515625 7.066406 7.542969 7.109375 7.621094 L 11.535156 15.214844 L 11.265625 17.429688 C 11.257812 17.496094 11.273438 17.5625 11.304688 17.621094 Z M 14.207031 17.433594 L 13.492188 18.65625 C 13.410156 18.804688 13.460938 18.988281 13.605469 19.070312 C 13.753906 19.15625 13.941406 19.105469 14.023438 18.960938 L 14.804688 17.621094 L 14.777344 17.636719 C 14.835938 17.574219 14.871094 17.484375 14.828125 17.363281 C 13.8125 14.40625 14.886719 11.144531 17.464844 9.351562 C 18.109375 8.902344 18.746094 8.519531 19.300781 8.285156 C 19.636719 8.148438 19.9375 8.0625 20.1875 8.070312 C 20.71875 8.082031 21.285156 8.414062 21.566406 8.859375 C 21.703125 9.074219 21.785156 9.375 21.832031 9.730469 C 21.910156 10.320312 21.894531 11.054688 21.824219 11.828125 C 21.550781 14.9375 19.234375 17.492188 16.140625 18.097656 L 15.90625 18.25 L 14.445312 20.757812 C 14.363281 20.902344 14.414062 21.085938 14.558594 21.171875 C 14.707031 21.253906 14.894531 21.203125 14.976562 21.058594 L 16.371094 18.671875 C 19.671875 17.976562 22.140625 15.222656 22.433594 11.878906 C 22.5625 10.46875 22.496094 9.1875 22.089844 8.539062 C 21.703125 7.929688 20.929688 7.480469 20.203125 7.460938 C 19.441406 7.445312 18.289062 8.039062 17.113281 8.855469 C 14.347656 10.777344 13.175781 14.257812 14.207031 17.433594 Z M 17.128906 11.234375 C 18.011719 10.234375 18.882812 9.582031 19.765625 9.464844 C 19.933594 9.445312 20.050781 9.292969 20.027344 9.125 C 20.003906 8.960938 19.851562 8.84375 19.683594 8.863281 C 18.683594 8.996094 17.667969 9.699219 16.667969 10.832031 C 16.554688 10.960938 16.566406 11.152344 16.695312 11.261719 C 16.824219 11.371094 17.015625 11.359375 17.128906 11.234375 Z M 17.128906 11.234375 " fill-opacity="1" fill-rule="evenodd"/></g><g fill="#000000" fill-opacity="1"><g transform="translate(26.361983, 30.531394)"><g><path d="M 16.40625 0 L 16.40625 -10.921875 L 6.59375 -10.921875 L 6.59375 0 L 3.375 0 L 3.375 -23.3125 L 6.59375 -23.3125 L 6.59375 -13.5625 L 16.40625 -13.5625 L 16.40625 -23.3125 L 19.625 -23.3125 L 19.625 0 Z M 16.40625 0 "/></g></g></g><g fill="#000000" fill-opacity="1"><g transform="translate(49.354199, 30.531394)"><g><path d="M 15.796875 0 L 14.03125 -5.859375 L 5.203125 -5.859375 L 3.453125 0 L 0.203125 0 L 7.671875 -23.3125 L 11.734375 -23.3125 L 19.1875 0 Z M 5.984375 -8.453125 L 13.265625 -8.453125 L 9.640625 -20.640625 Z M 5.984375 -8.453125 "/></g></g></g><g fill="#000000" fill-opacity="1"><g transform="translate(68.728514, 30.531394)"><g><path d="M 19.34375 -7.46875 C 19.34375 -5.914062 19.019531 -4.546875 18.375 -3.359375 C 17.738281 -2.179688 16.804688 -1.257812 15.578125 -0.59375 C 14.347656 0.0703125 12.875 0.40625 11.15625 0.40625 C 8.5625 0.40625 6.5625 -0.304688 5.15625 -1.734375 C 3.75 -3.171875 3.046875 -5.082031 3.046875 -7.46875 L 3.046875 -23.3125 L 6.265625 -23.3125 L 6.265625 -7.71875 C 6.265625 -5.90625 6.664062 -4.546875 7.46875 -3.640625 C 8.28125 -2.742188 9.507812 -2.296875 11.15625 -2.296875 C 12.832031 -2.296875 14.078125 -2.738281 14.890625 -3.625 C 15.703125 -4.519531 16.109375 -5.882812 16.109375 -7.71875 L 16.109375 -23.3125 L 19.34375 -23.3125 Z M 19.34375 -7.46875 "/></g></g></g><g fill="#000000" fill-opacity="1"><g transform="translate(91.112112, 30.531394)"><g><path d="M 6.59375 -23.3125 L 6.59375 0 L 3.375 0 L 3.375 -23.3125 Z M 19.28125 -23.3125 L 10.453125 -12.65625 L 19.921875 0 L 15.96875 0 L 6.765625 -12.453125 L 15.625 -23.3125 Z M 19.28125 -23.3125 "/></g></g></g><g fill="#000000" fill-opacity="1"><g transform="translate(111.027429, 30.531394)"><g><path d="M 15.796875 0 L 14.03125 -5.859375 L 5.203125 -5.859375 L 3.453125 0 L 0.203125 0 L 7.671875 -23.3125 L 11.734375 -23.3125 L 19.1875 0 Z M 5.984375 -8.453125 L 13.265625 -8.453125 L 9.640625 -20.640625 Z M 5.984375 -8.453125 "/></g></g></g><g fill="#000000" fill-opacity="1"><g transform="translate(130.401745, 30.531394)"><g><path d="M 6.59375 -23.3125 L 6.59375 0 L 3.375 0 L 3.375 -23.3125 Z M 6.59375 -23.3125 "/></g></g></g></svg>